<?xml version="1.0" encoding="utf-8"?>
<!-- Generator: Adobe Illustrator 16.0.0, SVG Export Plug-In . SVG Version: 6.00 Build 0)  -->
<!DOCTYPE svg PUBLIC "-//W3C//DTD SVG 1.1//EN" "http://www.w3.org/Graphics/SVG/1.1/DTD/svg11.dtd">
<svg version="1.1" id="Layer_1" xmlns="http://www.w3.org/2000/svg" xmlns:xlink="http://www.w3.org/1999/xlink" x="0px" y="0px"
	 width="141.73px" height="141.73px" viewBox="0 0 141.73 141.73" enable-background="new 0 0 141.73 141.73" xml:space="preserve">
<g enable-background="new    ">
	<path fill="#FFFFFF" d="M42.408,61.187h-6.112v-7.295l0.601-13.506l-7.411,20.801H25.35l-7.394-20.801l0.601,13.506v7.295h-6.091
		V32.934h5.162h2.813l6.985,20.159l6.985-20.159h7.994v28.252H42.408z"/>
	<path fill="#FFFFFF" d="M64.276,58.898c0.144,0.737,0.356,1.39,0.642,1.959v0.332h-5.88c-0.261-0.504-0.447-1.132-0.564-1.882
		c-1.333,1.514-3.085,2.27-5.26,2.27c-1.318,0-2.522-0.271-3.607-0.814c-1.088-0.545-1.944-1.294-2.571-2.25
		c-0.628-0.959-0.941-2.038-0.941-3.241c0-2.211,0.821-3.916,2.464-5.111c1.641-1.196,4.06-1.795,7.256-1.795h2.387V47.18
		c0-0.971-0.246-1.724-0.739-2.262c-0.491-0.538-1.228-0.805-2.21-0.805c-0.893,0-1.589,0.211-2.087,0.632
		c-0.5,0.419-0.748,1.018-0.748,1.793h-5.86c0-1.254,0.372-2.393,1.116-3.414c0.744-1.02,1.799-1.828,3.164-2.424
		c1.364-0.595,2.939-0.892,4.724-0.892c1.656,0,3.126,0.277,4.404,0.833c1.28,0.559,2.284,1.392,3.007,2.504
		c0.724,1.113,1.088,2.471,1.088,4.072v8.791C64.063,57.197,64.135,58.161,64.276,58.898z M56.786,56.578
		c0.646-0.368,1.118-0.819,1.417-1.348v-3.514h-2.232c-1.358,0-2.369,0.295-3.035,0.883c-0.666,0.587-1,1.355-1,2.298
		c0,0.66,0.235,1.196,0.709,1.61c0.471,0.414,1.104,0.622,1.891,0.622C55.39,57.132,56.14,56.947,56.786,56.578z"/>
	<path fill="#FFFFFF" d="M84.71,41.696c1.152,1.26,1.728,3.321,1.728,6.18v13.312h-5.859V47.856c0-1.242-0.266-2.106-0.796-2.59
		c-0.531-0.484-1.352-0.729-2.465-0.729c-0.763,0-1.424,0.165-1.989,0.486c-0.561,0.323-1.018,0.782-1.367,1.378v14.787h-5.86
		V40.192h5.493l0.193,2.426c0.737-0.92,1.615-1.617,2.639-2.098c1.021-0.478,2.155-0.716,3.396-0.716
		C81.929,39.804,83.558,40.434,84.71,41.696z"/>
	<path fill="#FFFFFF" d="M109.121,40.192v20.239c0,1.888-0.426,3.512-1.28,4.87c-0.855,1.359-2.054,2.389-3.601,3.095
		c-1.546,0.706-3.343,1.058-5.386,1.058c-1.423,0-2.872-0.281-4.347-0.847c-1.475-0.561-2.628-1.355-3.455-2.375l2.542-3.592
		c0.646,0.713,1.397,1.268,2.253,1.671c0.854,0.401,1.777,0.603,2.774,0.603c1.462,0,2.598-0.394,3.405-1.176
		c0.808-0.78,1.212-1.886,1.212-3.307v-1.048c-1.292,1.46-2.961,2.191-5.007,2.191c-1.705,0-3.204-0.456-4.492-1.367
		c-1.288-0.913-2.276-2.178-2.967-3.794c-0.694-1.617-1.039-3.44-1.039-5.473v-0.407c0-2.122,0.345-3.99,1.039-5.607
		c0.69-1.619,1.679-2.875,2.967-3.774s2.797-1.348,4.531-1.348c2.275,0,4.049,0.775,5.317,2.328l0.213-1.94H109.121z
		 M103.241,55.035v-8.712c-0.711-1.189-1.875-1.785-3.492-1.785c-1.346,0-2.377,0.558-3.095,1.669
		c-0.717,1.114-1.077,2.557-1.077,4.328v0.408c0,1.749,0.349,3.168,1.047,4.261c0.699,1.092,1.728,1.64,3.088,1.64
		C101.34,56.839,102.516,56.238,103.241,55.035z"/>
	<path fill="#FFFFFF" d="M113.593,44.983c0.782-1.615,1.925-2.881,3.427-3.803c1.5-0.917,3.291-1.376,5.374-1.376
		c2.097,0,3.896,0.459,5.402,1.376c1.508,0.921,2.652,2.188,3.437,3.803c0.782,1.619,1.172,3.456,1.172,5.512v0.41
		c0,2.053-0.392,3.891-1.172,5.5c-0.782,1.609-1.925,2.873-3.425,3.793c-1.504,0.918-3.293,1.377-5.376,1.377
		c-2.097,0-3.898-0.459-5.403-1.377c-1.506-0.921-2.653-2.185-3.436-3.793c-0.783-1.61-1.173-3.447-1.173-5.5v-0.41
		C112.42,48.438,112.81,46.602,113.593,44.983z M119.27,55.239c0.658,1.08,1.713,1.621,3.162,1.621c1.425,0,2.466-0.545,3.124-1.629
		c0.66-1.088,0.992-2.53,0.992-4.328v-0.41c0-1.785-0.332-3.227-0.992-4.328c-0.658-1.098-1.715-1.648-3.163-1.648
		c-1.423,0-2.465,0.554-3.123,1.659c-0.66,1.105-0.991,2.546-0.991,4.317v0.41C118.279,52.714,118.61,54.16,119.27,55.239z"/>
</g>
</svg>
