<?xml version="1.0" encoding="utf-8"?>
<!-- Generator: Adobe Illustrator 16.0.0, SVG Export Plug-In . SVG Version: 6.00 Build 0)  -->
<!DOCTYPE svg PUBLIC "-//W3C//DTD SVG 1.1//EN" "http://www.w3.org/Graphics/SVG/1.1/DTD/svg11.dtd">
<svg version="1.1" id="Layer_1" xmlns="http://www.w3.org/2000/svg" xmlns:xlink="http://www.w3.org/1999/xlink" x="0px" y="0px"
	 width="85.04px" height="28.35px" viewBox="0 0 85.04 28.35" enable-background="new 0 0 85.04 28.35" xml:space="preserve">
<g enable-background="new    ">
	<path fill="#FFFFFF" d="M24.259,22.521h-3.851v-4.597l0.379-8.508l-4.67,13.104h-2.604L8.856,9.417l0.379,8.508v4.597H5.396V4.723
		h3.252h1.772l4.401,12.701l4.4-12.701h5.037V22.521z"/>
	<path fill="#FFFFFF" d="M38.036,21.079c0.09,0.465,0.224,0.876,0.404,1.234v0.208h-3.704c-0.163-0.317-0.281-0.713-0.354-1.186
		c-0.839,0.953-1.944,1.43-3.313,1.43c-0.831,0-1.589-0.171-2.273-0.513c-0.685-0.343-1.225-0.815-1.62-1.418
		c-0.395-0.604-0.593-1.284-0.593-2.042c0-1.394,0.518-2.467,1.553-3.221c1.035-0.754,2.559-1.131,4.572-1.131h1.503v-0.746
		c0-0.611-0.155-1.085-0.464-1.424c-0.31-0.338-0.774-0.507-1.394-0.507c-0.562,0-1,0.132-1.314,0.397
		c-0.314,0.265-0.471,0.642-0.471,1.131h-3.692c0-0.79,0.234-1.507,0.703-2.151c0.468-0.644,1.132-1.153,1.992-1.528
		c0.86-0.375,1.852-0.562,2.977-0.562c1.043,0,1.968,0.175,2.775,0.526c0.807,0.35,1.438,0.876,1.895,1.577
		c0.457,0.701,0.685,1.557,0.685,2.567v5.538C37.901,20.008,37.946,20.614,38.036,21.079z M33.317,19.618
		c0.407-0.232,0.705-0.516,0.892-0.85v-2.213h-1.406c-0.855,0-1.493,0.186-1.913,0.557s-0.629,0.854-0.629,1.448
		c0,0.416,0.148,0.754,0.446,1.015c0.297,0.261,0.694,0.392,1.192,0.392C32.437,19.967,32.91,19.851,33.317,19.618z"/>
	<path fill="#FFFFFF" d="M50.907,10.242c0.726,0.794,1.089,2.092,1.089,3.894v8.386h-3.692v-8.398c0-0.783-0.167-1.327-0.501-1.632
		c-0.334-0.305-0.852-0.458-1.553-0.458c-0.48,0-0.898,0.102-1.253,0.306s-0.642,0.493-0.862,0.868v9.315h-3.691V9.295h3.459
		l0.122,1.528c0.465-0.579,1.019-1.019,1.662-1.32c0.645-0.301,1.357-0.452,2.14-0.452C49.155,9.05,50.183,9.448,50.907,10.242z"/>
	<path fill="#FFFFFF" d="M66.286,9.295v12.75c0,1.189-0.269,2.213-0.807,3.068s-1.294,1.505-2.268,1.949s-2.104,0.667-3.393,0.667
		c-0.896,0-1.809-0.178-2.737-0.532c-0.93-0.354-1.655-0.854-2.177-1.497l1.602-2.262c0.407,0.448,0.88,0.799,1.418,1.051
		c0.538,0.253,1.121,0.379,1.748,0.379c0.921,0,1.636-0.246,2.146-0.739s0.764-1.188,0.764-2.084v-0.66
		c-0.814,0.921-1.866,1.381-3.153,1.381c-1.076,0-2.02-0.287-2.83-0.861s-1.435-1.371-1.87-2.39
		c-0.437-1.019-0.654-2.168-0.654-3.447v-0.257c0-1.337,0.218-2.514,0.654-3.533c0.436-1.019,1.06-1.811,1.87-2.377
		s1.763-0.85,2.854-0.85c1.435,0,2.551,0.489,3.35,1.467l0.135-1.222H66.286z M62.582,18.646v-5.489
		c-0.448-0.75-1.182-1.125-2.2-1.125c-0.848,0-1.497,0.35-1.949,1.051c-0.452,0.701-0.679,1.609-0.679,2.726v0.257
		c0,1.1,0.22,1.994,0.66,2.683c0.44,0.689,1.088,1.033,1.943,1.033C61.385,19.783,62.126,19.404,62.582,18.646z"/>
	<path fill="#FFFFFF" d="M69.104,12.314c0.493-1.019,1.212-1.817,2.157-2.396c0.945-0.578,2.074-0.868,3.387-0.868
		c1.32,0,2.455,0.29,3.404,0.868c0.949,0.579,1.671,1.377,2.164,2.396c0.492,1.019,0.739,2.176,0.739,3.472v0.257
		c0,1.295-0.247,2.45-0.739,3.465c-0.493,1.015-1.213,1.812-2.158,2.391c-0.945,0.578-2.074,0.867-3.386,0.867
		c-1.32,0-2.455-0.289-3.404-0.867c-0.95-0.579-1.671-1.376-2.164-2.391s-0.739-2.17-0.739-3.465v-0.257
		C68.364,14.49,68.61,13.333,69.104,12.314z M72.679,18.774c0.416,0.681,1.08,1.021,1.993,1.021c0.896,0,1.552-0.343,1.968-1.027
		s0.624-1.593,0.624-2.726v-0.257c0-1.125-0.208-2.034-0.624-2.726c-0.416-0.693-1.08-1.039-1.992-1.039
		c-0.896,0-1.553,0.348-1.969,1.045c-0.415,0.697-0.623,1.604-0.623,2.72v0.257C72.056,17.184,72.264,18.095,72.679,18.774z"/>
</g>
<g>
</g>
<g>
</g>
<g>
</g>
<g>
</g>
<g>
</g>
<g>
</g>
</svg>
